<svg width="512" height="512" viewBox="0 0 512 512" fill="none" xmlns="http://www.w3.org/2000/svg">
  <!-- Background -->
  <rect width="512" height="512" rx="76.8" fill="#0D0C0C"/>
  
  <!-- Main Icon Circle -->
  <circle cx="256" cy="256" r="160" fill="url(#gradient)"/>
  
  <!-- Letter I -->
  <rect x="220" y="160" width="32" height="192" fill="white" rx="16"/>
  <rect x="200" y="160" width="72" height="32" fill="white" rx="16"/>
  <rect x="200" y="320" width="72" height="32" fill="white" rx="16"/>
  
  <!-- Letter A (stylized) -->
  <path d="M320 352 L340 320 L380 352 L370 352 L365 340 L335 340 L330 352 Z M345 310 L355 310 L350 298 Z" fill="white"/>
  
  <!-- Decorative elements -->
  <circle cx="140" cy="140" r="20" fill="#FF2C68" opacity="0.8"/>
  <circle cx="372" cy="140" r="16" fill="#FF2C68" opacity="0.6"/>
  <circle cx="140" cy="372" r="16" fill="#FF2C68" opacity="0.6"/>
  <circle cx="372" cy="372" r="20" fill="#FF2C68" opacity="0.8"/>
  
  <!-- Chat bubble -->
  <path d="M400 100 Q420 100 420 120 L420 160 Q420 180 400 180 L360 180 L340 200 L360 180 L340 180 Q320 180 320 160 L320 120 Q320 100 340 100 Z" fill="#FF2C68"/>
  <circle cx="350" cy="130" r="4" fill="white"/>
  <circle cx="370" cy="130" r="4" fill="white"/>
  <circle cx="390" cy="130" r="4" fill="white"/>
  
  <!-- Gradient Definition -->
  <defs>
    <linearGradient id="gradient" x1="0%" y1="0%" x2="100%" y2="100%">
      <stop offset="0%" style="stop-color:#FF2C68;stop-opacity:1" />
      <stop offset="50%" style="stop-color:#FF6B9D;stop-opacity:1" />
      <stop offset="100%" style="stop-color:#FF2C68;stop-opacity:1" />
    </linearGradient>
  </defs>
</svg> 