<?xml version="1.0" encoding="UTF-8"?>
<svg id="Layer_1" data-name="Layer 1" xmlns="http://www.w3.org/2000/svg" viewBox="0 0 1080 1080">
  <defs>
    <style>
      .cls-1 {
        fill-rule: evenodd;
      }

      .cls-2 {
        fill: #ff2c68;
      }

      .cls-3 {
        font-family: SpaceGrotesk-Bold, 'Space Grotesk';
        font-size: 91.34px;
        font-weight: 700;
      }
    </style>
  </defs>
  <rect class="cls-2" width="1080" height="1080"/>
  <g>
    <text class="cls-3" transform="translate(678.52 711.49)"><tspan x="0" y="0">RUB</tspan></text>
    <g>
      <path d="M264.52,369.7c0,14.46,11.76,26.03,26.6,26.03s26.8-11.57,26.8-26.03-11.76-26.22-26.8-26.22-26.6,11.57-26.6,26.22Z"/>
      <path d="M266.41,565.3c0,26.59,7.85,48.22,34.29,48.85-9.58,21.8-2.01,49.88,20.12,64.22,4.01,2.6,5.85,2.2,8.45-1.8,9.77-15.08,10.02-34.95,1.4-51.16,16.62,2,39.22-7.06,46.59-18.11,3.26-3.8,2.82-5.63-.66-8.62-17.35-13.84-41.92-15.26-61.11-.9v-149.76c0-18.59-9.24-26.21-27.82-26.21h-65.95v39.5h44.69v103.98Z"/>
      <path class="cls-1" d="M369.89,621.61c6.71-2.85,13.05-9.89,14.94-14.31,1.89-4.42,1.63-8.62-3.94-13.39-11-9.44-26.25-14.65-44.79-12.12-.67-3.75-1.02-9.27-1.02-13.33,0-36.24,27.95-58.03,77.69-61.11l53.98-3.08v-14.65c0-21.4-14.46-27.95-38.17-27.95h-75.25v-39.1h75.25c50.7,0,85.6,22.52,85.6,63.59v140.73h-46.27v-32.58h-.96c-11.76,22.17-37.4,35.86-63.62,35.86-12.39,0-23.72-4.05-33.43-8.54ZM417.78,593.91c27.18,0,48.97-18.12,48.97-42.8v-15.62l-47.23,2.89c-23.13,1.54-36.44,11.95-36.44,28.15s13.88,27.38,34.7,27.38Z"/>
      <path class="cls-1" d="M544.7,422.53v204.35h48v-118.95c0-28.72,16.39-46.27,43.57-46.27h126.85c23.71,0,36.24,6.55,36.24,27.95v14.65l-53.98,3.08c-49.74,3.08-77.69,24.87-77.69,61.11s28.72,61.69,68.24,61.69c26.22,0,51.86-13.69,63.62-35.86h.96v32.58h46.27v-140.73c0-41.06-32.97-67.86-83.67-67.86-11.32,0-24.28.07-37.65.17-9.18.07-17.19,6.22-19.65,15.06l-6,21.65-5.88-21.21c-2.49-8.97-10.69-15.15-20-15.07-12.75.1-24.28.18-33.24.18-24.1,0-42.03,14.27-48.97,39.13h-.96v-35.66h-46.07ZM750.39,593.91c27.18,0,48.97-18.12,48.97-42.8v-15.62l-47.23,2.89c-23.13,1.54-36.43,11.95-36.43,28.15s13.88,27.38,34.7,27.38Z"/>
    </g>
  </g>
</svg>