<svg width="32" height="32" viewBox="0 0 32 32" fill="none" xmlns="http://www.w3.org/2000/svg">
  <circle cx="16" cy="16" r="16" fill="#ec4899"/>
  <g transform="translate(4, 8) scale(0.008, 0.008)">
    <path d="M207.314 127.056C207.314 196.989 264.193 252.936 335.992 252.936C408.723 252.936 465.602 196.989 465.602 127.056C465.602 56.19 408.723 0.243164 335.992 0.243164C264.193 0.243164 207.314 56.19 207.314 127.056Z" fill="#000000"/>
    <path d="M216.447 1073.12C216.447 1201.73 254.44 1306.35 382.315 1309.42C335.978 1414.86 372.606 1550.69 479.649 1620.05C499.035 1632.61 507.95 1630.71 520.512 1611.32C567.781 1538.38 568.98 1442.28 527.271 1363.85C607.637 1373.54 716.98 1329.72 752.625 1276.26C768.383 1257.9 766.241 1249.01 749.452 1234.59C665.531 1167.66 546.673 1160.78 453.877 1230.25V505.879C453.877 415.986 409.203 379.102 319.31 379.102H0.310059V570.167H216.447V1073.12Z" fill="#000000"/>
    <path fill-rule="evenodd" clip-rule="evenodd" d="M716.98 1345.47C749.452 1331.67 780.082 1297.62 789.229 1276.26C798.376 1254.89 797.112 1234.59 770.182 1211.49C716.98 1165.85 643.226 1140.65 553.533 1152.87C550.276 1134.74 548.589 1108.03 548.589 1088.41C548.589 913.108 683.794 807.742 924.365 792.822L1185.45 777.903V707.037C1185.45 603.536 1115.52 571.833 1000.83 571.833H636.861V382.701H1000.83C1246.06 382.701 1414.83 491.642 1414.83 690.253V1370.94H1191.05V1213.36H1186.38C1129.5 1320.59 1005.49 1386.79 878.675 1386.79C818.756 1386.79 763.967 1367.18 716.98 1345.47ZM948.609 1211.49C1080.08 1211.49 1185.45 1123.84 1185.45 1004.49V928.96L957.001 942.947C845.107 950.406 780.768 1000.76 780.768 1079.08C780.768 1160.21 847.904 1211.49 948.609 1211.49Z" fill="#000000"/>
    <path fill-rule="evenodd" clip-rule="evenodd" d="M1562.47 382.546V1370.94H1794.65V795.62C1794.65 656.685 1873.91 571.833 2005.38 571.833H2618.93C2733.62 571.833 2794.23 603.536 2794.23 707.037V777.903L2533.15 792.822C2292.57 807.742 2157.37 913.108 2157.37 1088.41C2157.37 1266.51 2296.3 1386.79 2487.46 1386.79C2614.27 1386.79 2738.28 1320.59 2795.16 1213.36H2799.83V1370.94H3023.61V690.253C3023.61 491.642 2864.17 362.032 2618.93 362.032C2564.17 362.032 2501.51 362.369 2436.83 362.841C2392.43 363.164 2353.66 392.92 2341.8 435.701L2312.78 540.44L2284.34 437.827C2272.32 394.442 2232.65 364.553 2187.63 364.913C2125.93 365.405 2070.2 365.762 2026.83 365.762C1910.27 365.762 1823.55 434.763 1789.99 555.049H1785.32V382.546H1562.47ZM2557.39 1211.49C2688.87 1211.49 2794.23 1123.84 2794.23 1004.49V928.96L2565.78 942.947C2453.89 950.406 2389.55 1000.76 2389.55 1079.08C2389.55 1160.21 2456.69 1211.49 2557.39 1211.49Z" fill="#000000"/>
  </g>
</svg> 