<svg width="3025" height="1628" viewBox="0 0 3025 1628" fill="none" xmlns="http://www.w3.org/2000/svg">
<path d="M207.888 127.056C207.888 196.989 264.767 252.936 336.566 252.936C409.296 252.936 466.176 196.989 466.176 127.056C466.176 56.19 409.296 0.243164 336.566 0.243164C264.767 0.243164 207.888 56.19 207.888 127.056Z" fill="#FF2C68"/>
<path d="M217.021 1073.12C217.021 1201.73 255.014 1306.35 382.889 1309.42C336.551 1414.86 373.18 1550.69 480.223 1620.05C499.609 1632.61 508.524 1630.71 521.085 1611.32C568.355 1538.38 569.554 1442.28 527.844 1363.85C608.211 1373.54 717.554 1329.72 753.199 1276.26C768.957 1257.9 766.815 1249.01 750.025 1234.59C666.104 1167.66 547.247 1160.78 454.45 1230.25V505.879C454.45 415.986 409.777 379.102 319.884 379.102H0.883789V570.167H217.021V1073.12Z" fill="#FF2C68"/>
<path fill-rule="evenodd" clip-rule="evenodd" d="M717.554 1345.47C750.025 1331.67 780.656 1297.62 789.803 1276.26C798.949 1254.89 797.686 1234.59 770.756 1211.49C717.554 1165.85 643.8 1140.65 554.106 1152.87C550.849 1134.74 549.163 1108.03 549.163 1088.41C549.163 913.108 684.368 807.742 924.939 792.822L1186.02 777.903V707.037C1186.02 603.536 1116.09 571.833 1001.4 571.833H637.435V382.701H1001.4C1246.63 382.701 1415.41 491.642 1415.41 690.253V1370.94H1191.62V1213.36H1186.96C1130.08 1320.59 1006.06 1386.79 879.249 1386.79C819.329 1386.79 764.541 1367.18 717.554 1345.47ZM949.182 1211.49C1080.66 1211.49 1186.02 1123.84 1186.02 1004.49V928.96L957.574 942.947C845.681 950.406 781.342 1000.76 781.342 1079.08C781.342 1160.21 848.478 1211.49 949.182 1211.49Z" fill="#FF2C68"/>
<path fill-rule="evenodd" clip-rule="evenodd" d="M1563.04 382.546V1370.94H1795.22V795.62C1795.22 656.685 1874.48 571.833 2005.96 571.833H2619.51C2734.2 571.833 2794.81 603.536 2794.81 707.037V777.903L2533.72 792.822C2293.15 807.742 2157.94 913.108 2157.94 1088.41C2157.94 1266.51 2296.88 1386.79 2488.03 1386.79C2614.84 1386.79 2738.86 1320.59 2795.74 1213.36H2800.4V1370.94H3024.19V690.253C3024.19 491.642 2864.74 362.032 2619.51 362.032C2564.75 362.032 2502.08 362.369 2437.4 362.841C2393.01 363.164 2354.23 392.92 2342.38 435.701L2313.35 540.44L2284.91 437.827C2272.89 394.442 2233.22 364.553 2188.2 364.913C2126.51 365.405 2070.77 365.762 2027.4 365.762C1910.85 365.762 1824.13 434.763 1790.56 555.049H1785.9V382.546H1563.04ZM2557.96 1211.49C2689.44 1211.49 2794.81 1123.84 2794.81 1004.49V928.96L2566.36 942.947C2454.46 950.406 2390.12 1000.76 2390.12 1079.08C2390.12 1160.21 2457.26 1211.49 2557.96 1211.49Z" fill="#FF2C68"/>
</svg>
