<?xml version="1.0" encoding="UTF-8"?>
<svg id="Layer_1" data-name="Layer 1" xmlns="http://www.w3.org/2000/svg" viewBox="0 0 4151.83 1843.97">
  <defs>
    <style>
      .cls-1 {
        font-family: SpaceGrotesk-Bold, 'Space Grotesk';
        font-size: 441.79px;
        font-variation-settings: 'wght' 700;
        font-weight: 700;
      }

      .cls-2 {
        fill-rule: evenodd;
      }
    </style>
  </defs>
  <text class="cls-1" transform="translate(3223.39 1531.31)"><tspan x="0" y="0">HUB</tspan></text>
  <g>
    <path d="M313.63,276.86c0,69.93,56.88,125.88,128.68,125.88s129.61-55.95,129.61-125.88-56.88-126.81-129.61-126.81-128.68,55.95-128.68,126.81Z"/>
    <path d="M322.76,1222.92c0,128.61,37.99,233.23,165.87,236.3-46.34,105.44-9.71,241.27,97.33,310.63,19.39,12.56,28.3,10.66,40.86-8.73,47.27-72.94,48.47-169.04,6.76-247.47,80.37,9.69,189.71-34.13,225.35-87.59,15.76-18.36,13.62-27.25-3.17-41.67-83.92-66.93-202.78-73.81-295.57-4.34v-724.37c0-89.89-44.67-126.78-134.57-126.78H106.63v191.07h216.14v502.95Z"/>
    <path class="cls-2" d="M823.3,1495.27c32.47-13.8,63.1-47.85,72.25-69.21,9.15-21.37,7.88-41.67-19.05-64.77-53.2-45.64-126.96-70.84-216.65-58.62-3.26-18.13-4.94-44.84-4.94-64.46,0-175.3,135.21-280.67,375.78-295.59l261.09-14.92v-70.87c0-103.5-69.94-135.21-184.63-135.21h-363.96v-189.13h363.96c245.23,0,414.01,108.94,414.01,307.55v680.69h-223.79v-157.58h-4.66c-56.88,107.23-180.9,173.43-307.71,173.43-59.92,0-114.71-19.61-161.7-41.32ZM1054.93,1361.29c131.47,0,236.85-87.65,236.85-207v-75.53l-228.45,13.99c-111.89,7.46-176.23,57.81-176.23,136.13s67.14,132.41,167.84,132.41Z"/>
    <path class="cls-2" d="M1668.79,532.35v988.39h232.17v-575.32c0-138.93,79.26-223.79,210.74-223.79h613.55c114.69,0,175.3,31.7,175.3,135.21v70.87l-261.09,14.92c-240.57,14.92-375.77,120.29-375.77,295.59s138.93,298.38,330.08,298.38c126.82,0,250.83-66.2,307.71-173.43h4.66v157.58h223.79v-680.69c0-198.61-159.45-328.22-404.68-328.22-54.76,0-117.43.34-182.11.81-44.39.32-83.16,30.08-95.02,72.86l-29.03,104.74-28.43-102.61c-12.03-43.39-51.7-73.27-96.72-72.91-61.69.49-117.43.85-160.8.85-116.55,0-203.27,69-236.84,189.29h-4.66v-172.5h-222.85ZM2663.71,1361.29c131.47,0,236.84-87.65,236.84-207v-75.53l-228.45,13.99c-111.9,7.46-176.23,57.81-176.23,136.13s67.13,132.41,167.84,132.41Z"/>
  </g>
</svg>